<svg width="53" height="58" viewBox="0 0 53 58" fill="none" xmlns="http://www.w3.org/2000/svg">
<path fill-rule="evenodd" clip-rule="evenodd" d="M27.0534 6.85198C26.0367 6.6629 24.6507 6.64857 22.1504 6.64857C17.9178 6.64857 14.9092 6.65239 12.6282 6.98647C10.3936 7.31376 9.10964 7.92766 8.17633 8.94899C7.24174 9.97175 6.68156 11.3726 6.38286 13.804C6.07773 16.2875 6.07422 19.5613 6.07422 24.1695V33.8362C6.07422 38.4443 6.07773 41.7179 6.38286 44.2015C6.68156 46.6329 7.24174 48.0336 8.17633 49.0564C9.11092 50.0793 10.391 50.6922 12.6128 51.0192C14.8822 51.3532 17.8737 51.357 22.0846 51.357H30.918C35.1288 51.357 38.1204 51.3532 40.39 51.0192C42.6115 50.6922 43.8917 50.0793 44.8263 49.0564C45.7608 48.0336 46.3211 46.6329 46.6197 44.2015C46.9249 41.7179 46.9284 38.4443 46.9284 33.8362V32.7796C46.9284 29.0676 46.9045 27.308 46.5446 25.982H39.6327C37.1311 25.982 35.0866 25.982 33.4728 25.7445C31.7856 25.4963 30.323 24.959 29.1555 23.6815C27.988 22.4038 27.497 20.8032 27.2702 18.9569C27.0534 17.1907 27.0534 14.9535 27.0534 12.2158V6.85198ZM30.3659 8.72557V12.0861C30.3659 14.9854 30.3694 16.9775 30.5532 18.4739C30.7307 19.9181 31.0483 20.6263 31.4979 21.1182C31.9473 21.6101 32.5943 21.9577 33.9142 22.1519C35.2816 22.3531 37.102 22.3569 39.7513 22.3569H44.211C43.5563 21.662 42.7175 20.8294 41.6284 19.7566L32.886 11.1463C31.8141 10.0906 31.0165 9.3113 30.3659 8.72557ZM22.4722 3.0235C25.5299 3.0226 27.5052 3.02205 29.3233 3.78554C31.1415 4.54907 32.6034 5.98954 34.8649 8.21819C34.9429 8.29514 35.0219 8.37301 35.1021 8.45184L43.8442 17.0622C43.9374 17.1538 44.0293 17.2443 44.1201 17.3337C46.7341 19.9066 48.4243 21.5703 49.3335 23.8044C50.2427 26.0383 50.242 28.5263 50.2409 32.3736C50.2409 32.5073 50.2409 32.6426 50.2409 32.7796V33.9725C50.2409 38.4136 50.2409 41.9315 49.9028 44.6846C49.5545 47.5179 48.8212 49.8111 47.1687 51.6197C45.5159 53.4283 43.4202 54.2309 40.8312 54.6118C38.3154 54.982 35.101 54.982 31.0425 54.982H21.9601C17.9017 54.982 14.6871 54.982 12.1714 54.6118C9.58229 54.2309 7.48669 53.4283 5.83404 51.6197C4.18141 49.8111 3.44798 47.5179 3.0999 44.6846C2.76165 41.9315 2.76168 38.4136 2.76172 33.9725V24.0331C2.76168 19.5918 2.76165 16.074 3.0999 13.3209C3.44798 10.4876 4.18141 8.19429 5.83404 6.38573C7.48797 4.57579 9.59059 3.77404 12.1888 3.39351C14.7151 3.0235 17.9456 3.02352 22.0262 3.02357H22.1504C22.2589 3.02357 22.3662 3.02355 22.4722 3.0235Z" fill="black" fill-opacity="0.1"/>
</svg>
