<svg width="24" height="24" viewBox="0 0 24 24" fill="none" xmlns="http://www.w3.org/2000/svg">
<path d="M12.0004 2.75C11.0219 2.75 10.1875 3.37503 9.87824 4.24993C9.7402 4.64047 9.31171 4.84517 8.92117 4.70713C8.53063 4.56909 8.32594 4.1406 8.46398 3.75007C8.97841 2.29459 10.3665 1.25 12.0004 1.25C13.6344 1.25 15.0224 2.29459 15.5369 3.75007C15.6749 4.1406 15.4702 4.56909 15.0797 4.70713C14.6891 4.84517 14.2606 4.64047 14.1226 4.24993C13.8134 3.37503 12.9789 2.75 12.0004 2.75Z" fill="#7F7F7F"/>
<path d="M2.75 6C2.75 5.58579 3.08579 5.25 3.5 5.25H20.5001C20.9143 5.25 21.2501 5.58579 21.2501 6C21.2501 6.41421 20.9143 6.75 20.5001 6.75H3.5C3.08579 6.75 2.75 6.41421 2.75 6Z" fill="#7F7F7F"/>
<path d="M5.91535 8.45014C5.8878 8.03684 5.53042 7.72414 5.11713 7.75169C4.70383 7.77924 4.39112 8.13662 4.41868 8.54992L4.88213 15.5016C4.96762 16.7844 5.03668 17.8205 5.19865 18.6336C5.36705 19.4789 5.65347 20.185 6.24507 20.7384C6.83666 21.2919 7.56021 21.5307 8.41486 21.6425C9.2369 21.75 10.2754 21.75 11.561 21.75H12.4398C13.7254 21.75 14.7638 21.75 15.5859 21.6425C16.4405 21.5307 17.1641 21.2919 17.7557 20.7384C18.3473 20.185 18.6337 19.4789 18.8021 18.6336C18.964 17.8205 19.0331 16.7844 19.1186 15.5016L19.5821 8.54992C19.6096 8.13662 19.2969 7.77924 18.8836 7.75169C18.4703 7.72414 18.1129 8.03684 18.0854 8.45014L17.6254 15.3492C17.5356 16.6971 17.4715 17.6349 17.331 18.3405C17.1946 19.025 17.0043 19.3873 16.7309 19.6431C16.4575 19.8988 16.0833 20.0647 15.3913 20.1552C14.6779 20.2485 13.7379 20.25 12.3871 20.25H11.6137C10.2629 20.25 9.32282 20.2485 8.60942 20.1552C7.91742 20.0647 7.54326 19.8988 7.26984 19.6431C6.99643 19.3873 6.8061 19.025 6.66975 18.3405C6.52918 17.6349 6.46515 16.6971 6.3753 15.3492L5.91535 8.45014Z" fill="#7F7F7F"/>
<path d="M9.42543 10.2538C9.83759 10.2126 10.2051 10.5133 10.2464 10.9255L10.7464 15.9255C10.7876 16.3376 10.4869 16.7052 10.0747 16.7464C9.66253 16.7876 9.29499 16.4869 9.25378 16.0747L8.75378 11.0747C8.71256 10.6626 9.01327 10.295 9.42543 10.2538Z" fill="#7F7F7F"/>
<path d="M15.2464 11.0747C15.2876 10.6626 14.9869 10.295 14.5747 10.2538C14.1626 10.2126 13.795 10.5133 13.7538 10.9255L13.2538 15.9255C13.2126 16.3376 13.5133 16.7052 13.9255 16.7464C14.3376 16.7876 14.7051 16.4869 14.7464 16.0747L15.2464 11.0747Z" fill="#7F7F7F"/>
</svg>
