<svg width="24" height="24" viewBox="0 0 24 24" fill="none" xmlns="http://www.w3.org/2000/svg">
<path d="M6.99505 7.00627C6.60452 7.3968 6.60452 8.02996 6.99505 8.42049L10.5802 12.0056L6.99505 15.5908C6.60452 15.9813 6.60452 16.6145 6.99505 17.005C7.38557 17.3955 8.01874 17.3955 8.40926 17.005L11.9944 13.4198L15.5796 17.005C15.9701 17.3955 16.6033 17.3955 16.9938 17.005C17.3843 16.6145 17.3843 15.9813 16.9938 15.5908L13.4086 12.0056L16.9938 8.4205C17.3843 8.02998 17.3843 7.39681 16.9938 7.00629C16.6032 6.61576 15.9701 6.61576 15.5796 7.00629L11.9944 10.5914L8.40926 7.00627C8.01874 6.61575 7.38557 6.61575 6.99505 7.00627Z" fill="#7F7F7F"/>
</svg>
