<svg width="95" height="117" viewBox="0 0 95 117" fill="none" xmlns="http://www.w3.org/2000/svg">
<path fill-rule="evenodd" clip-rule="evenodd" d="M47.5008 0.71875C33.4005 0.71875 21.9697 12.1495 21.9697 26.25C21.9697 40.3505 33.4005 51.7812 47.5008 51.7812C61.6016 51.7812 73.0321 40.3505 73.0321 26.25C73.0321 12.1495 61.6016 0.71875 47.5008 0.71875ZM30.0322 26.25C30.0322 16.6023 37.8532 8.78125 47.5008 8.78125C57.1489 8.78125 64.9696 16.6023 64.9696 26.25C64.9696 35.8977 57.1489 43.7188 47.5008 43.7188C37.8532 43.7188 30.0322 35.8977 30.0322 26.25Z" fill="#7F7F7F"/>
<path fill-rule="evenodd" clip-rule="evenodd" d="M47.5005 59.8438C35.0654 59.8438 23.6084 62.6705 15.1187 67.4456C6.75545 72.1503 0.469437 79.2803 0.469437 88.0625L0.469115 88.6107C0.463041 94.8554 0.455408 102.693 7.33019 108.291C10.7136 111.047 15.4468 113.006 21.8416 114.301C28.2543 115.598 36.6122 116.281 47.5005 116.281C58.3892 116.281 66.7473 115.598 73.1597 114.301C79.5549 113.006 84.2881 111.047 87.6711 108.291C94.5458 102.693 94.5382 94.8554 94.5323 88.6107L94.5318 88.0625C94.5318 79.2803 88.2463 72.1503 79.8828 67.4456C71.3929 62.6705 59.9361 59.8438 47.5005 59.8438ZM8.53194 88.0625C8.53194 83.4868 11.8719 78.5224 19.0715 74.4729C26.1447 70.4943 36.1878 67.9062 47.5005 67.9062C58.8138 67.9062 68.8565 70.4943 75.93 74.4729C83.1298 78.5224 86.4693 83.4868 86.4693 88.0625C86.4693 95.0919 86.2527 99.049 82.5799 102.04C80.5885 103.662 77.2592 105.245 71.5601 106.398C65.8793 107.548 58.1124 108.219 47.5005 108.219C36.8892 108.219 29.1222 107.548 23.4411 106.398C17.7422 105.245 14.4128 103.662 12.4212 102.04C8.74866 99.049 8.53194 95.0919 8.53194 88.0625Z" fill="#7F7F7F"/>
</svg>
