<svg width="24" height="24" viewBox="0 0 24 24" fill="none" xmlns="http://www.w3.org/2000/svg">
<path fill-rule="evenodd" clip-rule="evenodd" d="M11.9359 1.62068e-07H13.6744C14.1368 1.62068e-07 14.5116 0.374836 14.5116 0.837209C14.5116 1.29958 14.1368 1.67442 13.6744 1.67442H12C9.34523 1.67442 7.43838 1.67619 5.98725 1.8713C4.56018 2.06316 3.69985 2.42806 3.06396 3.06396C2.42806 3.69985 2.06316 4.56019 1.87129 5.98725C1.67619 7.43839 1.67442 9.34524 1.67442 12C1.67442 14.6547 1.67619 16.5616 1.87129 18.0127C2.06316 19.4398 2.42806 20.3001 3.06396 20.936C3.69985 21.572 4.56018 21.9369 5.98725 22.1287C7.43838 22.3238 9.34523 22.3256 12 22.3256C14.6547 22.3256 16.5615 22.3238 18.0127 22.1287C19.4398 21.9369 20.3001 21.572 20.936 20.936C21.572 20.3001 21.9369 19.4398 22.1286 18.0127C22.3238 16.5616 22.3256 14.6547 22.3256 12V10.3256C22.3256 9.86322 22.7004 9.48837 23.1628 9.48837C23.6251 9.48837 24 9.86322 24 10.3256V12.0641C24 14.6409 24 16.6602 23.7882 18.2359C23.5713 19.8486 23.1189 21.1212 22.1201 22.1201C21.1212 23.1189 19.8485 23.5714 18.2358 23.7882C16.6602 24 14.6409 24 12.0641 24H11.9359C9.35913 24 7.33974 24 5.76413 23.7882C4.1514 23.5714 2.87882 23.1189 1.87997 22.1201C0.881112 21.1212 0.42864 19.8486 0.211814 18.2359C-2.22062e-05 16.6602 -1.10007e-05 14.6409 1.62068e-07 12.0641V11.9359C-1.10007e-05 9.35914 -2.22062e-05 7.33975 0.211814 5.76414C0.42864 4.15141 0.881112 2.87883 1.87997 1.87997C2.87882 0.881113 4.1514 0.42864 5.76413 0.211814C7.33974 -2.22062e-05 9.35913 -1.10007e-05 11.9359 1.62068e-07ZM17.3252 1.14521C18.8521 -0.381735 21.3278 -0.381735 22.8548 1.14521C24.3817 2.67215 24.3817 5.14781 22.8548 6.67476L15.4337 14.0959C15.0192 14.5104 14.7595 14.77 14.4699 14.9961C14.1286 15.2622 13.7594 15.4904 13.3687 15.6766C13.037 15.8346 12.6886 15.9507 12.1326 16.136L8.89033 17.2168C8.29172 17.4163 7.63177 17.2606 7.1856 16.8144C6.73944 16.3682 6.58364 15.7083 6.78317 15.1096L7.86392 11.8674C8.04924 11.3114 8.16534 10.963 8.32341 10.6313C8.5096 10.2406 8.73779 9.87137 9.00395 9.53014C9.22993 9.24041 9.48959 8.98079 9.90406 8.56633L17.3252 1.14521ZM21.6707 2.32921C20.7977 1.45616 19.3823 1.45616 18.5092 2.32921L18.0888 2.74962C18.1142 2.85663 18.1496 2.98412 18.1989 3.12632C18.3589 3.58741 18.6616 4.19465 19.2335 4.7665C19.8053 5.33835 20.4126 5.64107 20.8736 5.80105C21.0158 5.85039 21.1433 5.88584 21.2504 5.91118L21.6707 5.49076C22.5438 4.61772 22.5438 3.20224 21.6707 2.32921ZM19.9313 7.23024C19.3554 6.98254 18.6845 6.58544 18.0494 5.95049C17.4145 5.31555 17.0174 4.64464 16.7697 4.06868L11.1265 9.71192C10.6616 10.1769 10.4792 10.3613 10.3242 10.5599C10.1329 10.8052 9.96881 11.0708 9.83497 11.3517C9.72654 11.5792 9.64317 11.8246 9.43523 12.4484L8.95312 13.8948L10.1052 15.0469L11.5516 14.5648C12.1754 14.3568 12.4208 14.2734 12.6483 14.165C12.9292 14.0312 13.1947 13.8671 13.4401 13.6758C13.6387 13.5208 13.8231 13.3384 14.288 12.8735L19.9313 7.23024Z" fill="#7F7F7F"/>
</svg>
