<svg width="25" height="26" viewBox="0 0 25 26" fill="none" xmlns="http://www.w3.org/2000/svg">
<path fill-rule="evenodd" clip-rule="evenodd" d="M12.5 8.85156C10.3426 8.85156 8.59375 10.6004 8.59375 12.7578C8.59375 14.9152 10.3426 16.6641 12.5 16.6641C14.6574 16.6641 16.4062 14.9152 16.4062 12.7578C16.4062 10.6004 14.6574 8.85156 12.5 8.85156ZM10.1562 12.7578C10.1562 11.4634 11.2056 10.4141 12.5 10.4141C13.7944 10.4141 14.8438 11.4634 14.8438 12.7578C14.8438 14.0522 13.7944 15.1016 12.5 15.1016C11.2056 15.1016 10.1562 14.0522 10.1562 12.7578Z" fill="black" fill-opacity="0.5"/>
<path fill-rule="evenodd" clip-rule="evenodd" d="M12.4744 1.5625C12.0115 1.56249 11.6249 1.56249 11.3076 1.58414C10.9773 1.60668 10.6653 1.65526 10.3628 1.78055C9.66095 2.07129 9.10329 2.62895 8.81255 3.33085C8.66119 3.69627 8.6202 4.08138 8.60455 4.49996C8.59196 4.83645 8.42215 5.1172 8.17154 5.26189C7.92093 5.40657 7.59289 5.41326 7.29519 5.25592C6.92486 5.06018 6.57085 4.90312 6.1787 4.85149C5.42547 4.75232 4.66369 4.95645 4.06095 5.41895C3.8012 5.61826 3.60312 5.86417 3.41845 6.13896C3.24105 6.40293 3.04781 6.73766 2.81632 7.13861L2.79001 7.18418C2.55851 7.58513 2.36526 7.91983 2.22536 8.20545C2.07972 8.50278 1.9658 8.79728 1.92306 9.12189C1.82389 9.87513 2.02801 10.6369 2.4905 11.2397C2.73125 11.5533 3.04422 11.7815 3.39885 12.0043C3.68404 12.1834 3.8423 12.4709 3.84227 12.7604C3.84226 13.0498 3.684 13.3373 3.39885 13.5165C3.04418 13.7393 2.73118 13.9674 2.49041 14.2811C2.02791 14.8839 1.8238 15.6456 1.92295 16.3989C1.96569 16.7234 2.07962 17.018 2.22525 17.3153C2.36516 17.6009 2.55841 17.9356 2.7899 18.3366L2.81621 18.3822C3.0477 18.7831 3.24094 19.1178 3.41835 19.3818C3.60301 19.6566 3.8011 19.9025 4.06085 20.1018C4.66359 20.5643 5.42537 20.7684 6.1786 20.6693C6.57072 20.6176 6.92471 20.4606 7.29502 20.2649C7.59276 20.1075 7.92085 20.1142 8.17148 20.259C8.42213 20.4036 8.59196 20.6844 8.60455 21.0209C8.6202 21.4395 8.6612 21.8246 8.81255 22.19C9.10329 22.8919 9.66095 23.4496 10.3628 23.7403C10.6653 23.8656 10.9773 23.9142 11.3076 23.9367C11.6249 23.9583 12.0115 23.9583 12.4744 23.9583H12.527C12.99 23.9583 13.3765 23.9583 13.6939 23.9367C14.0242 23.9142 14.3362 23.8656 14.6387 23.7403C15.3405 23.4496 15.8983 22.8919 16.189 22.19C16.3403 21.8246 16.3813 21.4395 16.3969 21.0208C16.4095 20.6844 16.5793 20.4036 16.8299 20.2589C17.0805 20.1142 17.4087 20.1075 17.7064 20.2648C18.0767 20.4605 18.4307 20.6176 18.8228 20.6692C19.5761 20.7683 20.3378 20.5643 20.9405 20.1018C21.2003 19.9024 21.3984 19.6566 21.583 19.3818C21.7604 19.1178 21.9537 18.7831 22.1851 18.3822L22.2115 18.3366C22.4429 17.9356 22.6363 17.6008 22.7762 17.3152C22.9218 17.0179 23.0357 16.7234 23.0785 16.3989C23.1776 15.6455 22.9735 14.8837 22.511 14.281C22.2702 13.9673 21.9572 13.7393 21.6026 13.5165C21.3174 13.3373 21.1592 13.0498 21.1592 12.7603C21.1592 12.4709 21.3174 12.1835 21.6025 12.0044C21.9573 11.7816 22.2703 11.5535 22.5111 11.2397C22.9736 10.637 23.1777 9.8752 23.0786 9.12196C23.0358 8.79735 22.9219 8.50285 22.7763 8.20552C22.6364 7.91993 22.4431 7.58524 22.2116 7.18432L22.1853 7.13873C21.9538 6.73776 21.7605 6.403 21.5832 6.13903C21.3985 5.86424 21.2004 5.61833 20.9407 5.41901C20.3379 4.95652 19.5762 4.7524 18.8228 4.85156C18.4308 4.90319 18.0768 5.06023 17.7065 5.25596C17.4088 5.41332 17.0806 5.40663 16.83 5.26192C16.5794 5.11722 16.4095 4.83643 16.3969 4.49991C16.3813 4.08133 16.3403 3.69625 16.189 3.33085C15.8983 2.62895 15.3405 2.07129 14.6387 1.78055C14.3362 1.65526 14.0242 1.60668 13.6939 1.58414C13.3765 1.56249 12.99 1.56249 12.527 1.5625H12.4744ZM10.9608 3.22412C11.0412 3.19082 11.1633 3.16013 11.414 3.14301C11.6718 3.12543 12.0047 3.125 12.5008 3.125C12.9968 3.125 13.3297 3.12543 13.5874 3.14301C13.8383 3.16013 13.9603 3.19082 14.0406 3.22412C14.3597 3.35627 14.6133 3.60975 14.7453 3.9288C14.7871 4.02944 14.8216 4.18632 14.8355 4.5583C14.8664 5.3837 15.2924 6.17843 16.0488 6.61508C16.805 7.05175 17.7064 7.02333 18.4366 6.63738C18.7656 6.46344 18.9189 6.41492 19.0268 6.4007C19.3692 6.35563 19.7154 6.44841 19.9894 6.65863C20.0585 6.71158 20.1461 6.80197 20.2863 7.01058C20.4304 7.22503 20.5972 7.51313 20.8452 7.94271C21.0933 8.3723 21.2594 8.66081 21.373 8.89284C21.4836 9.11856 21.518 9.23966 21.5294 9.32591C21.5745 9.66828 21.4817 10.0146 21.2715 10.2885C21.2051 10.3749 21.0866 10.4833 20.7713 10.6814C20.072 11.1208 19.5968 11.8871 19.5967 12.7603C19.5967 13.6336 20.0719 14.4 20.7713 14.8395C21.0865 15.0375 21.205 15.1458 21.2714 15.2323C21.4816 15.5062 21.5744 15.8525 21.5293 16.1949C21.5179 16.2811 21.4835 16.4022 21.3729 16.6279C21.2593 16.8599 21.0931 17.1484 20.8451 17.578C20.5971 18.0076 20.4303 18.2957 20.2862 18.5102C20.146 18.7188 20.0584 18.8092 19.9893 18.8621C19.7153 19.0724 19.3691 19.1651 19.0267 19.1201C18.9188 19.1058 18.7655 19.0573 18.4365 18.8834C17.7063 18.4974 16.8049 18.4691 16.0486 18.9057C15.2924 19.3424 14.8664 20.1371 14.8355 20.9625C14.8216 21.3345 14.7871 21.4914 14.7453 21.5921C14.6133 21.911 14.3597 22.1646 14.0406 22.2968C13.9603 22.33 13.8383 22.3607 13.5874 22.3778C13.3297 22.3954 12.9968 22.3958 12.5008 22.3958C12.0047 22.3958 11.6718 22.3954 11.414 22.3778C11.1633 22.3607 11.0412 22.33 10.9608 22.2968C10.6418 22.1646 10.3883 21.911 10.2561 21.5921C10.2144 21.4914 10.1799 21.3345 10.166 20.9625C10.1351 20.1372 9.70906 19.3424 8.95273 18.9057C8.19642 18.4691 7.29515 18.4975 6.5649 18.8834C6.23581 19.0574 6.08266 19.1059 5.97466 19.1201C5.63228 19.1652 5.28601 19.0724 5.01205 18.8622C4.94303 18.8093 4.85539 18.7189 4.71519 18.5102C4.57108 18.2958 4.40425 18.0077 4.15623 17.5781C3.9082 17.1485 3.74212 16.86 3.62846 16.628C3.5179 16.4023 3.48344 16.2811 3.47209 16.1949C3.42701 15.8525 3.5198 15.5062 3.73002 15.2323C3.79634 15.1459 3.91493 15.0375 4.23013 14.8395C4.92948 14.4001 5.40473 13.6337 5.40477 12.7605C5.40483 11.8871 4.92956 11.1207 4.23014 10.6812C3.91501 10.4832 3.79643 10.3749 3.73012 10.2884C3.5199 10.0145 3.42712 9.66822 3.47219 9.32583C3.48355 9.23959 3.518 9.11849 3.62857 8.89278C3.74222 8.66074 3.90831 8.37223 4.15633 7.94264C4.40436 7.51305 4.57117 7.22496 4.7153 7.01051C4.85549 6.80191 4.94313 6.71151 5.01214 6.65856C5.28612 6.44833 5.63238 6.35555 5.97475 6.40063C6.08276 6.41484 6.23592 6.46337 6.56506 6.63733C7.29526 7.02328 8.19649 7.05169 8.95277 6.61505C9.70907 6.17842 10.1351 5.38372 10.166 4.55835C10.1799 4.18634 10.2144 4.02945 10.2561 3.9288C10.3883 3.60975 10.6418 3.35627 10.9608 3.22412Z" fill="black" fill-opacity="0.5"/>
</svg>
