<svg width="19" height="17" viewBox="0 0 19 17" fill="none" xmlns="http://www.w3.org/2000/svg">
<path fill-rule="evenodd" clip-rule="evenodd" d="M6.25295 3.49867C6.6648 3.35201 7.11667 3.5695 7.26224 3.98445C7.58835 4.91403 8.46828 5.57812 9.50017 5.57812C10.5321 5.57812 11.4121 4.91403 11.7382 3.98445C11.8837 3.5695 12.3356 3.35201 12.7475 3.49867C13.1593 3.64534 13.3752 4.10061 13.2296 4.51555C12.6871 6.062 11.2233 7.17188 9.50017 7.17188C7.77711 7.17188 6.31332 6.062 5.77081 4.51555C5.62524 4.10061 5.84111 3.64534 6.25295 3.49867ZM9.88024 1.59375H9.11968C7.40517 1.59375 6.26407 1.59659 5.39981 1.70418C4.57901 1.80635 4.20068 1.98399 3.93518 2.20599C3.66967 2.42799 3.42666 2.76992 3.17571 3.56389C2.91149 4.39991 2.69842 5.52943 2.38246 7.22723C1.93956 9.60713 1.64262 11.2236 1.58988 12.4411C1.53903 13.6148 1.73422 14.1137 2.00829 14.4464C2.28235 14.7791 2.73309 15.0643 3.88733 15.2303C5.08481 15.4024 6.71646 15.4062 9.11968 15.4062H9.88024C12.2836 15.4062 13.9152 15.4024 15.1127 15.2303C16.2669 15.0643 16.7176 14.7791 16.9917 14.4464C17.2658 14.1137 17.461 13.6148 17.4102 12.4411C17.3574 11.2236 17.0605 9.60713 16.6175 7.22723C16.3016 5.52943 16.0885 4.39991 15.8243 3.56389C15.5733 2.76992 15.3303 2.42799 15.0648 2.20599C14.7994 1.98399 14.421 1.80635 13.6002 1.70418C12.7359 1.59659 11.5947 1.59375 9.88024 1.59375ZM2.92495 0.979582C1.75344 1.95918 1.44485 3.6173 0.827698 6.93356C-0.0401264 11.5968 -0.474038 13.9284 0.791041 15.4642C2.05612 17 4.41066 17 9.11968 17H9.88024C14.5893 17 16.9438 17 18.209 15.4642C19.474 13.9284 19.0401 11.5968 18.1723 6.93356C17.5552 3.6173 17.2466 1.95918 16.0751 0.979582C14.9036 -1.2666e-07 13.2291 0 9.88024 0H9.11968C5.77088 0 4.09646 -1.2666e-07 2.92495 0.979582Z" fill="white"/>
</svg>
