<svg width="25" height="26" viewBox="0 0 25 26" fill="none" xmlns="http://www.w3.org/2000/svg">
<path fill-rule="evenodd" clip-rule="evenodd" d="M9.29364 7.90664C9.70046 7.76284 10.1468 7.97607 10.2906 8.38289C10.6127 9.29424 11.4819 9.94531 12.5011 9.94531C13.5204 9.94531 14.3897 9.29424 14.7118 8.38289C14.8555 7.97607 15.3019 7.76284 15.7087 7.90664C16.1155 8.05043 16.3287 8.49677 16.185 8.90357C15.6491 10.4197 14.2032 11.5078 12.5011 11.5078C10.7992 11.5078 9.35328 10.4197 8.81741 8.90357C8.67361 8.49677 8.88684 8.05043 9.29364 7.90664ZM12.8766 6.03906H12.1253C10.4318 6.03906 9.30464 6.04184 8.45095 6.14732C7.64019 6.24749 7.26648 6.42165 7.00423 6.6393C6.74197 6.85695 6.50193 7.19217 6.25405 7.97057C5.99306 8.7902 5.7826 9.89757 5.4705 11.5621C5.03302 13.8953 4.73972 15.4801 4.68761 16.6737C4.6374 17.8244 4.8302 18.3135 5.10091 18.6397C5.37161 18.9658 5.81684 19.2455 6.95697 19.4082C8.1398 19.577 9.75149 19.5807 12.1253 19.5807H12.8766C15.2505 19.5807 16.8622 19.577 18.045 19.4082C19.1851 19.2455 19.6303 18.9658 19.901 18.6397C20.1718 18.3135 20.3646 17.8244 20.3144 16.6737C20.2623 15.4801 19.969 13.8953 19.5315 11.5621C19.2194 9.89757 19.0089 8.7902 18.7479 7.97057C18.5 7.19217 18.26 6.85695 17.9977 6.6393C17.7355 6.42165 17.3618 6.24749 16.551 6.14732C15.6973 6.04184 14.5701 6.03906 12.8766 6.03906ZM6.00635 5.43694C4.84918 6.39732 4.54436 8.02294 3.93476 11.2742C3.07755 15.8459 2.64895 18.1319 3.89855 19.6375C5.14816 21.1432 7.4739 21.1432 12.1253 21.1432H12.8766C17.528 21.1432 19.8537 21.1432 21.1034 19.6375C22.353 18.1319 21.9244 15.8459 21.0672 11.2742C20.4576 8.02294 20.1528 6.39732 18.9956 5.43694C17.8384 4.47656 16.1845 4.47656 12.8766 4.47656H12.1253C8.81748 4.47656 7.16354 4.47656 6.00635 5.43694Z" fill="black" fill-opacity="0.5"/>
</svg>
