<svg width="25" height="26" viewBox="0 0 25 26" fill="none" xmlns="http://www.w3.org/2000/svg">
<path fill-rule="evenodd" clip-rule="evenodd" d="M12.4987 1.47656C9.76604 1.47656 7.55078 3.69182 7.55078 6.42448C7.55078 9.15714 9.76604 11.3724 12.4987 11.3724C15.2314 11.3724 17.4466 9.15714 17.4466 6.42448C17.4466 3.69182 15.2314 1.47656 12.4987 1.47656ZM9.11328 6.42448C9.11328 4.55476 10.629 3.03906 12.4987 3.03906C14.3685 3.03906 15.8841 4.55476 15.8841 6.42448C15.8841 8.2942 14.3685 9.8099 12.4987 9.8099C10.629 9.8099 9.11328 8.2942 9.11328 6.42448Z" fill="#7F7F7F"/>
<path fill-rule="evenodd" clip-rule="evenodd" d="M12.5014 12.9297C10.0915 12.9297 7.87115 13.4775 6.22586 14.4029C4.60507 15.3147 3.38685 16.6965 3.38685 18.3984L3.38679 18.5047C3.38561 19.7149 3.38413 21.2339 4.71646 22.3187C5.37215 22.8527 6.28943 23.2324 7.52874 23.4833C8.77151 23.7348 10.3913 23.8672 12.5014 23.8672C14.6116 23.8672 16.2314 23.7348 17.4741 23.4833C18.7135 23.2324 19.6308 22.8527 20.2864 22.3187C21.6187 21.2339 21.6172 19.7149 21.6161 18.5047L21.616 18.3984C21.616 16.6965 20.3979 15.3147 18.777 14.4029C17.1317 13.4775 14.9114 12.9297 12.5014 12.9297ZM4.94935 18.3984C4.94935 17.5117 5.59662 16.5496 6.9919 15.7648C8.36269 14.9937 10.309 14.4922 12.5014 14.4922C14.6939 14.4922 16.6402 14.9937 18.011 15.7648C19.4063 16.5496 20.0535 17.5117 20.0535 18.3984C20.0535 19.7607 20.0115 20.5276 19.2997 21.1072C18.9138 21.4216 18.2686 21.7283 17.1641 21.9519C16.0632 22.1747 14.558 22.3047 12.5014 22.3047C10.4449 22.3047 8.93971 22.1747 7.83873 21.9519C6.73428 21.7283 6.08906 21.4216 5.70309 21.1072C4.99135 20.5276 4.94935 19.7607 4.94935 18.3984Z" fill="#7F7F7F"/>
</svg>
