<svg width="24" height="25" viewBox="0 0 24 25" fill="none" xmlns="http://www.w3.org/2000/svg">
<path fill-rule="evenodd" clip-rule="evenodd" d="M9.93866 3.35938H14.0612C15.9038 3.35936 17.3628 3.35935 18.5046 3.51248C19.6794 3.67004 20.6301 4.00193 21.38 4.74996C22.4096 5.77696 22.6598 7.19123 22.7387 9.06735L22.7397 9.09152C22.7466 9.25535 22.7537 9.42266 22.7475 9.56357C22.7409 9.71346 22.7177 9.92992 22.598 10.1438C22.5152 10.2917 22.4043 10.394 22.3304 10.4552C22.2502 10.5216 22.1612 10.5818 22.0764 10.6353C21.9126 10.7386 21.6912 10.8623 21.4316 11.0072L21.4125 11.0179C21.0268 11.2333 20.7699 11.6424 20.7699 12.1094C20.7699 12.5764 21.0268 12.9855 21.4125 13.2009L21.4317 13.2116C21.6912 13.3566 21.9127 13.4802 22.0764 13.5835C22.1612 13.637 22.2502 13.6972 22.3304 13.7636C22.4043 13.8248 22.5152 13.9271 22.598 14.075C22.7177 14.2889 22.7409 14.5053 22.7475 14.6552C22.7537 14.7961 22.7466 14.9634 22.7397 15.1273L22.7387 15.1514C22.6598 17.0276 22.4096 18.4418 21.38 19.4688C20.6301 20.2168 19.6794 20.5487 18.5046 20.7063C17.3628 20.8594 15.9038 20.8594 14.0612 20.8594H9.93866C8.09611 20.8594 6.63706 20.8594 5.49525 20.7063C4.32045 20.5487 3.36975 20.2168 2.61986 19.4688C1.59031 18.4418 1.34006 17.0276 1.26119 15.1514L1.26017 15.1273C1.25325 14.9634 1.24619 14.7961 1.25238 14.6552C1.25898 14.5053 1.28216 14.2889 1.40185 14.075C1.48468 13.9271 1.59561 13.8248 1.66951 13.7636C1.74966 13.6972 1.83867 13.637 1.92352 13.5835C2.08725 13.4802 2.30869 13.3565 2.56827 13.2116L2.58735 13.2009C2.97306 12.9855 3.23002 12.5764 3.23002 12.1094C3.23002 11.6424 2.97306 11.2333 2.58735 11.0179L2.56825 11.0072C2.30868 10.8623 2.08725 10.7386 1.92352 10.6353C1.83866 10.5818 1.74966 10.5216 1.66951 10.4552C1.5956 10.394 1.48468 10.2917 1.40185 10.1438C1.28216 9.92992 1.25898 9.71346 1.25238 9.56357C1.24619 9.42266 1.25325 9.25537 1.26017 9.09153C1.26051 9.08346 1.26085 9.0754 1.26119 9.06735C1.34006 7.19123 1.59031 5.77696 2.61986 4.74996C3.36975 4.00193 4.32046 3.67004 5.49525 3.51248C6.63706 3.35935 8.09611 3.35936 9.93866 3.35938ZM21.2468 14.6936C21.2468 14.6936 21.247 14.6946 21.2473 14.6969L21.2468 14.6936ZM21.2492 14.8354C21.2491 14.8419 21.2489 14.8488 21.2488 14.8558C21.2471 14.9198 21.244 14.9941 21.24 15.0884C21.162 16.9445 20.9085 17.8205 20.3207 18.4068C19.8961 18.8304 19.3144 19.0843 18.3053 19.2196C17.2747 19.3578 15.9164 19.3594 14.0049 19.3594H9.99496C8.0835 19.3594 6.72516 19.3578 5.69463 19.2196C4.68549 19.0843 4.10379 18.8304 3.6792 18.4068C3.09141 17.8205 2.83789 16.9445 2.75986 15.0884C2.7559 14.9941 2.75279 14.9198 2.75115 14.8558C2.75096 14.8488 2.75081 14.8419 2.75067 14.8354C2.87533 14.7584 3.05437 14.6582 3.3187 14.5106C4.15855 14.0416 4.73002 13.143 4.73002 12.1094C4.73002 11.0758 4.15855 10.1772 3.3187 9.70822C3.05437 9.56061 2.87533 9.46036 2.75066 9.38339C2.7508 9.37684 2.75096 9.37003 2.75115 9.36296C2.75279 9.29899 2.7559 9.22466 2.75986 9.13035C2.83789 7.27432 3.09141 6.39827 3.6792 5.81194C4.10379 5.3884 4.68549 5.13451 5.69463 4.99917C6.72516 4.86097 8.0835 4.85938 9.99496 4.85938H14.0049C15.9164 4.85938 17.2747 4.86097 18.3053 4.99917C19.3144 5.13451 19.8961 5.3884 20.3207 5.81194C20.9085 6.39827 21.162 7.27432 21.24 9.13036C21.244 9.22466 21.2471 9.29899 21.2488 9.36295C21.2489 9.37003 21.2491 9.37684 21.2492 9.38338C21.1246 9.46036 20.9455 9.56061 20.6812 9.70822C19.8413 10.1772 19.2699 11.0758 19.2699 12.1094C19.2699 13.143 19.8413 14.0416 20.6812 14.5106C20.9455 14.6582 21.1246 14.7584 21.2492 14.8354ZM21.3735 9.3001L21.3723 9.30103C21.3766 9.29717 21.3774 9.29685 21.3735 9.3001ZM21.2468 9.52516C21.2468 9.52516 21.2469 9.52399 21.2473 9.52186L21.2468 9.52516ZM2.62643 9.3001C2.62252 9.29685 2.62334 9.29717 2.62756 9.30103L2.62643 9.3001ZM2.75263 9.52185C2.75299 9.52398 2.75309 9.52516 2.75309 9.52516L2.75263 9.52185ZM2.75309 14.6936C2.75309 14.6936 2.75299 14.6948 2.75263 14.6969L2.75309 14.6936ZM2.62757 14.9178C2.62334 14.9216 2.62252 14.9219 2.62643 14.9187L2.62757 14.9178ZM21.3723 14.9178L21.3735 14.9187C21.3774 14.9219 21.3766 14.9216 21.3723 14.9178ZM15.5303 8.57905C15.8232 8.87194 15.8232 9.34682 15.5303 9.63971L9.53028 15.6397C9.23738 15.9326 8.76251 15.9326 8.46962 15.6397C8.17672 15.3468 8.17672 14.872 8.46962 14.5791L14.4696 8.57905C14.7625 8.28616 15.2374 8.28616 15.5303 8.57905Z" fill="#7F7F7F"/>
<path d="M15.5 14.6094C15.5 15.1617 15.0523 15.6094 14.5 15.6094C13.9478 15.6094 13.5 15.1617 13.5 14.6094C13.5 14.0571 13.9478 13.6094 14.5 13.6094C15.0523 13.6094 15.5 14.0571 15.5 14.6094Z" fill="#7F7F7F"/>
<path d="M10.4999 9.60938C10.4999 10.1617 10.0523 10.6094 9.5 10.6094C8.94771 10.6094 8.5 10.1617 8.5 9.60938C8.5 9.05709 8.94771 8.60938 9.5 8.60938C10.0523 8.60938 10.4999 9.05709 10.4999 9.60938Z" fill="#7F7F7F"/>
</svg>
