<svg width="22" height="19" viewBox="0 0 22 19" fill="none" xmlns="http://www.w3.org/2000/svg">
<path fill-rule="evenodd" clip-rule="evenodd" d="M8.89077 4.92083e-07H13.1092C14.9947 -2.12222e-05 16.4876 -3.20673e-05 17.656 0.166223C18.8581 0.337288 19.8309 0.697626 20.5983 1.50977C21.6518 2.6248 21.9078 4.16029 21.9886 6.19722L21.9896 6.22347C21.9966 6.40135 22.0039 6.58299 21.9976 6.73598C21.9908 6.89872 21.9671 7.13373 21.8446 7.36592C21.7599 7.5265 21.6464 7.63757 21.5708 7.70401C21.4887 7.7761 21.3976 7.84146 21.3109 7.89955C21.1432 8.0117 20.9167 8.14601 20.6511 8.30333L20.6315 8.31494C20.2368 8.54881 19.974 8.99297 19.974 9.5C19.974 10.007 20.2368 10.4512 20.6315 10.6851L20.6512 10.6967C20.9167 10.8541 21.1433 10.9883 21.3109 11.1005C21.3976 11.1585 21.4887 11.2239 21.5708 11.296C21.6464 11.3624 21.7599 11.4735 21.8446 11.6341C21.9671 11.8663 21.9908 12.1013 21.9976 12.264C22.0039 12.417 21.9966 12.5986 21.9896 12.7766L21.9886 12.8027C21.9078 14.8398 21.6518 16.3752 20.5983 17.4902C19.8309 18.3023 18.8581 18.6627 17.656 18.8338C16.4876 19 14.9947 19 13.1092 19H8.89077C7.00536 19 5.51237 19 4.344 18.8338C3.14187 18.6627 2.16906 18.3023 1.40172 17.4902C0.348226 16.3752 0.0921547 14.8398 0.01145 12.8027L0.0104062 12.7766C0.00332526 12.5986 -0.00389894 12.417 0.00243505 12.264C0.00918858 12.1013 0.0329078 11.8663 0.155382 11.6341C0.240139 11.4735 0.353649 11.3624 0.429268 11.296C0.511283 11.2239 0.602363 11.1585 0.689187 11.1005C0.856725 10.9883 1.08332 10.854 1.34893 10.6967L1.36846 10.6851C1.76314 10.4512 2.02608 10.007 2.02608 9.5C2.02608 8.99297 1.76314 8.54881 1.36846 8.31494L1.34891 8.30333C1.08331 8.14601 0.856725 8.0117 0.689187 7.89955C0.602353 7.84146 0.511283 7.7761 0.429268 7.70401C0.353639 7.63757 0.240139 7.5265 0.155382 7.36592C0.0329078 7.13373 0.00918858 6.89872 0.00243505 6.73598C-0.00389894 6.58299 0.00332526 6.40136 0.0104062 6.22348C0.0107541 6.21472 0.0111021 6.20596 0.01145 6.19722C0.0921547 4.16029 0.348226 2.6248 1.40172 1.50977C2.16906 0.697626 3.14188 0.337288 4.344 0.166223C5.51237 -3.20673e-05 7.00536 -2.12222e-05 8.89077 4.92083e-07ZM20.462 12.3057C20.462 12.3057 20.4622 12.3068 20.4625 12.3093L20.462 12.3057ZM20.4644 12.4597C20.4643 12.4667 20.4641 12.4742 20.464 12.4818C20.4623 12.5513 20.4591 12.632 20.455 12.7343C20.3752 14.7495 20.1158 15.7006 19.5143 16.3372C19.0798 16.7971 18.4846 17.0727 17.452 17.2196C16.3975 17.3697 15.0076 17.3714 13.0516 17.3714H8.94838C6.99246 17.3714 5.60252 17.3697 4.54802 17.2196C3.5154 17.0727 2.92017 16.7971 2.48571 16.3372C1.88424 15.7006 1.62483 14.7495 1.54498 12.7343C1.54093 12.632 1.53775 12.5513 1.53607 12.4818C1.53587 12.4742 1.53572 12.4667 1.53558 12.4597C1.66314 12.3761 1.84634 12.2673 2.11682 12.107C2.97621 11.5978 3.56097 10.6222 3.56097 9.5C3.56097 8.37781 2.97621 7.40218 2.11682 6.89303C1.84634 6.73276 1.66314 6.62392 1.53557 6.54035C1.53571 6.53324 1.53587 6.52585 1.53607 6.51817C1.53775 6.44872 1.54093 6.36802 1.54498 6.26563C1.62483 4.25051 1.88424 3.29937 2.48571 2.66278C2.92017 2.20294 3.5154 1.92728 4.54802 1.78034C5.60252 1.6303 6.99246 1.62857 8.94838 1.62857H13.0516C15.0076 1.62857 16.3975 1.6303 17.452 1.78034C18.4846 1.92728 19.0798 2.20294 19.5143 2.66278C20.1158 3.29937 20.3752 4.25051 20.455 6.26564C20.4591 6.36802 20.4623 6.44872 20.464 6.51816C20.4641 6.52585 20.4643 6.53324 20.4644 6.54034C20.3369 6.62392 20.1536 6.73276 19.8832 6.89303C19.0238 7.40218 18.4391 8.37781 18.4391 9.5C18.4391 10.6222 19.0238 11.5978 19.8832 12.107C20.1536 12.2673 20.3369 12.3761 20.4644 12.4597ZM20.5916 6.44992L20.5904 6.45093C20.5948 6.44674 20.5956 6.44641 20.5916 6.44992ZM20.462 6.69428C20.462 6.69428 20.4621 6.69301 20.4625 6.69069L20.462 6.69428ZM1.40845 6.44992C1.40445 6.44641 1.40529 6.44674 1.4096 6.45093L1.40845 6.44992ZM1.53758 6.69068C1.53795 6.69299 1.53805 6.69428 1.53805 6.69428L1.53758 6.69068ZM1.53805 12.3057C1.53805 12.3057 1.53795 12.307 1.53758 12.3093L1.53805 12.3057ZM1.40961 12.5491C1.40529 12.5532 1.40445 12.5536 1.40845 12.5501L1.40961 12.5491ZM20.5904 12.5491L20.5916 12.5501C20.5956 12.5536 20.5948 12.5532 20.5904 12.5491ZM14.6125 5.66707C14.9122 5.98507 14.9122 6.50065 14.6125 6.81864L8.47289 13.3329C8.17318 13.6509 7.68726 13.6509 7.38756 13.3329C7.08785 13.0149 7.08785 12.4994 7.38756 12.1814L13.5271 5.66707C13.8268 5.34908 14.3128 5.34908 14.6125 5.66707Z" fill="white"/>
</svg>
