<svg width="25" height="26" viewBox="0 0 25 26" fill="none" xmlns="http://www.w3.org/2000/svg">
<path fill-rule="evenodd" clip-rule="evenodd" d="M20.5716 10.8594C20.5716 11.2908 20.2218 11.6406 19.7904 11.6406H5.20703C4.77556 11.6406 4.42578 11.2908 4.42578 10.8594C4.42578 10.4279 4.77556 10.0781 5.20703 10.0781H19.7904C20.2218 10.0781 20.5716 10.4279 20.5716 10.8594Z" fill="#7F7F7F"/>
<path fill-rule="evenodd" clip-rule="evenodd" d="M20.5716 15.0312C20.5716 15.4627 20.2218 15.8125 19.7904 15.8125H5.20703C4.77556 15.8125 4.42578 15.4627 4.42578 15.0312C4.42578 14.5998 4.77556 14.25 5.20703 14.25H19.7904C20.2218 14.25 20.5716 14.5998 20.5716 15.0312Z" fill="#7F7F7F"/>
<path fill-rule="evenodd" clip-rule="evenodd" d="M20.5716 6.69531C20.5716 7.12678 20.2218 7.47656 19.7904 7.47656H5.20703C4.77556 7.47656 4.42578 7.12678 4.42578 6.69531C4.42578 6.26384 4.77556 5.91406 5.20703 5.91406H19.7904C20.2218 5.91406 20.5716 6.26384 20.5716 6.69531Z" fill="#7F7F7F"/>
<path fill-rule="evenodd" clip-rule="evenodd" d="M20.5716 19.1953C20.5716 19.6268 20.2218 19.9766 19.7904 19.9766H5.20703C4.77556 19.9766 4.42578 19.6268 4.42578 19.1953C4.42578 18.7639 4.77556 18.4141 5.20703 18.4141H19.7904C20.2218 18.4141 20.5716 18.7639 20.5716 19.1953Z" fill="#7F7F7F"/>
</svg>
