<svg width="25" height="25" viewBox="0 0 25 25" fill="none" xmlns="http://www.w3.org/2000/svg">
<path d="M13.0753 17.1939C12.9272 17.3557 12.7181 17.4479 12.4987 17.4479C12.2793 17.4479 12.0702 17.3557 11.9221 17.1939L7.75545 12.6366C7.46431 12.3181 7.48643 11.824 7.80487 11.5328C8.12332 11.2417 8.61747 11.2638 8.90862 11.5822L11.7175 14.6544V3.125C11.7175 2.69353 12.0672 2.34375 12.4987 2.34375C12.9302 2.34375 13.28 2.69353 13.28 3.125V14.6544L16.0888 11.5822C16.38 11.2638 16.8741 11.2417 17.1926 11.5328C17.511 11.824 17.5331 12.3181 17.2419 12.6366L13.0753 17.1939Z" fill="#7F7F7F"/>
<path d="M3.90625 15.625C3.90625 15.1935 3.55648 14.8438 3.125 14.8438C2.69353 14.8438 2.34375 15.1935 2.34375 15.625V15.6822C2.34373 17.1068 2.34371 18.255 2.46513 19.1581C2.59119 20.0957 2.86087 20.8851 3.48787 21.5121C4.11487 22.1392 4.90431 22.4089 5.84193 22.5349C6.74502 22.6562 7.89327 22.6562 9.31784 22.6562H15.6822C17.1068 22.6562 18.255 22.6562 19.1581 22.5349C20.0957 22.4089 20.8851 22.1392 21.5122 21.5121C22.1392 20.8851 22.4089 20.0957 22.5349 19.1581C22.6562 18.255 22.6562 17.1068 22.6562 15.6822V15.625C22.6562 15.1935 22.3065 14.8438 21.875 14.8438C21.4435 14.8438 21.0938 15.1935 21.0938 15.625C21.0938 17.1202 21.0921 18.163 20.9864 18.9499C20.8835 19.7143 20.6956 20.119 20.4073 20.4073C20.119 20.6956 19.7143 20.8835 18.9499 20.9864C18.163 21.0921 17.1202 21.0938 15.625 21.0938H9.375C7.87978 21.0938 6.83695 21.0921 6.05013 20.9864C5.28578 20.8835 4.88101 20.6956 4.59272 20.4073C4.30443 20.119 4.11646 19.7143 4.0137 18.9499C3.90791 18.163 3.90625 17.1202 3.90625 15.625Z" fill="#7F7F7F"/>
</svg>
