<svg width="46" height="50" viewBox="0 0 46 50" fill="none" xmlns="http://www.w3.org/2000/svg">
<path fill-rule="evenodd" clip-rule="evenodd" d="M0 20.6821C0 9.28901 10.2646 0 23 0C35.7354 0 46 9.28901 46 20.6821C46 26.1824 44.2283 32.0882 41.0961 37.1905C37.9681 42.2863 33.3976 46.7145 27.6802 49.0789C24.7102 50.307 21.2899 50.307 18.3198 49.0789C12.6023 46.7145 8.03192 42.2863 4.90376 37.1905C1.77174 32.0882 0 26.1824 0 20.6821ZM23 3.48838C12.5079 3.48838 3.94286 11.1569 3.94286 20.6821C3.94286 25.5591 5.52691 30.8963 8.36858 35.5256C11.2141 40.161 15.2353 43.9526 19.9892 45.9187C21.9015 46.7094 24.0985 46.7094 26.0108 45.9187C30.7648 43.9526 34.786 40.161 37.6314 35.5256C40.4732 30.8963 42.0571 25.5591 42.0571 20.6821C42.0571 11.1569 33.4922 3.48838 23 3.48838ZM23 15.1163C19.7337 15.1163 17.0857 17.459 17.0857 20.3489C17.0857 23.2386 19.7337 25.5814 23 25.5814C26.2663 25.5814 28.9143 23.2386 28.9143 20.3489C28.9143 17.459 26.2663 15.1163 23 15.1163ZM13.1429 20.3489C13.1429 15.5324 17.556 11.6279 23 11.6279C28.444 11.6279 32.8571 15.5324 32.8571 20.3489C32.8571 25.1654 28.444 29.0698 23 29.0698C17.556 29.0698 13.1429 25.1654 13.1429 20.3489Z" fill="white"/>
</svg>
