<svg width="25" height="26" viewBox="0 0 25 26" fill="none" xmlns="http://www.w3.org/2000/svg">
<path d="M13.2812 11.6016C13.2812 11.1701 12.9315 10.8203 12.5 10.8203C12.0685 10.8203 11.7188 11.1701 11.7188 11.6016V13.6849C11.7188 14.1164 12.0685 14.4661 12.5 14.4661C12.9315 14.4661 13.2812 14.1164 13.2812 13.6849V11.6016Z" fill="black" fill-opacity="0.5"/>
<path fill-rule="evenodd" clip-rule="evenodd" d="M14.2966 2.25287L16.8318 2.6754C18.0357 2.87604 19.011 3.03858 19.7741 3.26572C20.5686 3.50229 21.2251 3.83368 21.7305 4.43034C22.2359 5.02698 22.455 5.72904 22.5577 6.5517C22.6562 7.34164 22.6562 8.33043 22.6562 9.55095V15.7316C22.6562 16.9522 22.6562 17.941 22.5577 18.7309C22.455 19.5536 22.2359 20.2556 21.7305 20.8523C21.2251 21.4489 20.5686 21.7803 19.7741 22.0168C19.011 22.244 18.0357 22.4065 16.8319 22.6072L14.2966 23.0298C13.2203 23.2091 12.3305 23.3575 11.6198 23.3747C10.8744 23.3927 10.1833 23.2729 9.60674 22.7844C9.12003 22.3722 8.87901 21.8361 8.75267 21.2351H8.27742C7.0974 21.2351 6.13306 21.2351 5.37176 21.1328C4.57598 21.0258 3.88604 20.7942 3.33532 20.2435C2.78459 19.6928 2.55305 19.0029 2.44606 18.207C2.34371 17.4458 2.34373 16.4814 2.34375 15.3014V9.98121C2.34373 8.80119 2.34371 7.83687 2.44606 7.07557C2.55305 6.27979 2.78459 5.58985 3.33532 5.03913C3.88604 4.4884 4.57598 4.25686 5.37176 4.14987C6.13307 4.04752 7.09738 4.04754 8.27741 4.04756H8.75267C8.879 3.44647 9.12003 2.9105 9.60674 2.49819C10.1833 2.00976 10.8744 1.88995 11.6198 1.90795C12.3305 1.92513 13.2204 2.07347 14.2966 2.25287ZM8.59375 18.1987C8.59374 18.7362 8.59372 19.2279 8.60566 19.6726H8.33333C7.08364 19.6726 6.22495 19.6709 5.57996 19.5842C4.95744 19.5005 4.6522 19.3507 4.44018 19.1386C4.22816 18.9266 4.07832 18.6214 3.99463 17.9988C3.90792 17.3538 3.90625 16.4952 3.90625 15.2455V10.0371C3.90625 8.78744 3.90792 7.92876 3.99463 7.28377C4.07832 6.66125 4.22816 6.35601 4.44018 6.14398C4.6522 5.93196 4.95744 5.78213 5.57996 5.69843C6.22495 5.61172 7.08364 5.61006 8.33333 5.61006H8.60566C8.59372 6.05476 8.59374 6.54641 8.59375 7.08392V18.1987ZM11.5821 3.47001C11.0172 3.45635 10.7769 3.55476 10.6167 3.69041C10.4566 3.82607 10.32 4.04694 10.2406 4.60638C10.1581 5.18743 10.1562 5.97773 10.1562 7.14322V18.1393C10.1562 19.3049 10.1581 20.0952 10.2406 20.6762C10.32 21.2357 10.4566 21.4565 10.6167 21.5922C10.7769 21.7279 11.0172 21.8262 11.5821 21.8126C12.1688 21.7984 12.9486 21.6704 14.0982 21.4787L16.5241 21.0744C17.7909 20.8633 18.6696 20.7154 19.3282 20.5193C19.9658 20.3294 20.3032 20.1199 20.5383 19.8423C20.7734 19.5648 20.9248 19.1976 21.0072 18.5374C21.0923 17.8555 21.0938 16.9644 21.0938 15.6801V9.60252C21.0938 8.31812 21.0923 7.42714 21.0072 6.74529C20.9248 6.08507 20.7734 5.71785 20.5383 5.4403C20.3032 5.16275 19.9658 4.95312 19.3282 4.76327C18.6696 4.5672 17.7909 4.41932 16.5241 4.20817L14.0982 3.80386C12.9486 3.61227 12.1688 3.48417 11.5821 3.47001Z" fill="black" fill-opacity="0.5"/>
</svg>
