<svg width="22" height="24" viewBox="0 0 22 24" fill="none" xmlns="http://www.w3.org/2000/svg">
<path fill-rule="evenodd" clip-rule="evenodd" d="M12.8574 0.387464L15.4784 0.859783C16.7231 1.08406 17.7314 1.26575 18.5203 1.51967C19.3417 1.7841 20.0204 2.15455 20.5429 2.82151C21.0655 3.48846 21.2919 4.27324 21.3981 5.19284C21.5 6.07586 21.5 7.18116 21.5 8.5455V15.4545C21.5 16.8188 21.5 17.9242 21.3981 18.8072C21.2919 19.7268 21.0655 20.5115 20.5429 21.1785C20.0204 21.8454 19.3417 22.2158 18.5203 22.4803C17.7314 22.7342 16.7231 22.9159 15.4785 23.1402L12.8574 23.6126C11.7447 23.8131 10.8248 23.9789 10.09 23.9981C9.31936 24.0182 8.60491 23.8843 8.00881 23.3383C7.50563 22.8775 7.25645 22.2783 7.12583 21.6064H6.6345C5.41454 21.6064 4.41757 21.6064 3.6305 21.4921C2.80778 21.3725 2.09449 21.1136 1.52513 20.498C0.955765 19.8824 0.716387 19.1112 0.605776 18.2216C0.499958 17.3706 0.499979 16.2926 0.500001 14.9736V9.02646C0.499979 7.7074 0.499958 6.62944 0.605776 5.77844C0.716387 4.88888 0.955765 4.11765 1.52513 3.50204C2.09449 2.88641 2.80778 2.62759 3.6305 2.50799C4.41758 2.39358 5.41452 2.3936 6.63449 2.39363H7.12583C7.25644 1.72171 7.50563 1.12258 8.00881 0.661694C8.60491 0.115702 9.31936 -0.0182164 10.09 0.00190463C10.8248 0.0211057 11.7448 0.186929 12.8574 0.387464ZM6.96154 18.2123C6.96153 18.8131 6.96151 19.3627 6.97385 19.8598H6.69231C5.40031 19.8598 4.51256 19.8579 3.84574 19.761C3.20215 19.6674 2.88658 19.5 2.66738 19.2629C2.44819 19.0259 2.29328 18.6848 2.20675 17.9888C2.11711 17.2678 2.11539 16.308 2.11539 14.911V9.08898C2.11539 7.69203 2.11711 6.73216 2.20675 6.01117C2.29328 5.31529 2.44819 4.97408 2.66738 4.73708C2.88658 4.50008 3.20215 4.33259 3.84574 4.23903C4.51256 4.1421 5.40031 4.14024 6.69231 4.14024H6.97385C6.96151 4.63734 6.96153 5.18693 6.96154 5.78777V18.2123ZM10.051 1.74802C9.467 1.73275 9.21856 1.84275 9.05292 1.9944C8.8874 2.14604 8.74621 2.39294 8.66412 3.0183C8.57885 3.66781 8.57692 4.55124 8.57692 5.85406V18.1459C8.57692 19.4487 8.57885 20.3322 8.66412 20.9817C8.74621 21.6071 8.8874 21.8539 9.05292 22.0056C9.21856 22.1573 9.467 22.2672 10.051 22.2519C10.6575 22.2361 11.4638 22.093 12.6523 21.8787L15.1603 21.4268C16.47 21.1908 17.3784 21.0255 18.0593 20.8063C18.7185 20.5941 19.0673 20.3598 19.3104 20.0495C19.5535 19.7393 19.7099 19.3288 19.7951 18.5908C19.8831 17.8286 19.8846 16.8325 19.8846 15.3968V8.60314C19.8846 7.1674 19.8831 6.17143 19.7951 5.40924C19.7099 4.67122 19.5535 4.26073 19.3104 3.95048C19.0673 3.64022 18.7185 3.40589 18.0593 3.19367C17.3784 2.9745 16.47 2.80919 15.1603 2.57317L12.6523 2.12121C11.4638 1.90704 10.6575 1.76385 10.051 1.74802Z" fill="white"/>
</svg>
