<svg width="24" height="26" viewBox="0 0 24 26" fill="none" xmlns="http://www.w3.org/2000/svg">
<path fill-rule="evenodd" clip-rule="evenodd" d="M6.16935 2.43124C6.31654 1.06472 7.49327 0 8.92308 0H15.0769C16.5067 0 17.6834 1.06472 17.8306 2.43124C18.7698 2.45003 19.5819 2.49777 20.2752 2.62292C21.2081 2.79129 22.0021 3.11204 22.6482 3.74684C23.389 4.47474 23.7077 5.39124 23.8566 6.47974C24 7.52817 24 8.86121 24 10.515V17.9036C24 19.5574 24 20.8905 23.8566 21.9389C23.7077 23.0274 23.389 23.9438 22.6482 24.6718C21.9073 25.3997 20.9746 25.7128 19.8668 25.8591C18.7998 26 17.4431 26 15.7599 26H8.24016C6.55697 26 5.20027 26 4.13323 25.8591C3.0254 25.7128 2.09264 25.3997 1.35182 24.6718C0.610991 23.9438 0.292357 23.0274 0.14341 21.9389C-4.86821e-05 20.8905 -2.39705e-05 19.5574 6.44871e-07 17.9036V10.515C-2.39705e-05 8.86121 -4.86821e-05 7.52817 0.14341 6.47974C0.292357 5.39124 0.610991 4.47474 1.35182 3.74684C1.99788 3.11204 2.79182 2.79129 3.72474 2.62292C4.41813 2.49777 5.23018 2.45003 6.16935 2.43124ZM6.17226 4.2457C5.28834 4.26424 4.60721 4.30795 4.05828 4.40701C3.36067 4.53292 2.95687 4.7351 2.65724 5.0295C2.31662 5.36419 2.09452 5.8341 1.97311 6.72145C1.84811 7.63489 1.84615 8.84554 1.84615 10.5814V17.8372C1.84615 19.573 1.84811 20.7837 1.97311 21.6972C2.09452 22.5846 2.31662 23.0544 2.65724 23.3891C2.99787 23.7238 3.47612 23.942 4.37923 24.0614C5.30889 24.1841 6.54102 24.186 8.30769 24.186H15.6923C17.459 24.186 18.6911 24.1841 19.6208 24.0614C20.5239 23.942 21.0021 23.7238 21.3428 23.3891C21.6834 23.0544 21.9055 22.5846 22.027 21.6972C22.1519 20.7837 22.1538 19.573 22.1538 17.8372V10.5814C22.1538 8.84554 22.1519 7.63489 22.027 6.72145C21.9055 5.83409 21.6834 5.36419 21.3428 5.0295C21.0431 4.7351 20.6394 4.53292 19.9418 4.40701C19.3927 4.30795 18.7116 4.26424 17.8277 4.2457C17.6687 5.59982 16.4977 6.65116 15.0769 6.65116H8.92308C7.50227 6.65116 6.33137 5.59982 6.17226 4.2457ZM8.92308 1.81395C8.41328 1.81395 8 2.22002 8 2.72093V3.93023C8 4.43114 8.41328 4.83721 8.92308 4.83721H15.0769C15.5867 4.83721 16 4.43114 16 3.93023V2.72093C16 2.22002 15.5867 1.81395 15.0769 1.81395H8.92308ZM4.92308 11.186C4.92308 10.6852 5.33636 10.2791 5.84615 10.2791H6.46154C6.97134 10.2791 7.38462 10.6852 7.38462 11.186C7.38462 11.6869 6.97134 12.093 6.46154 12.093H5.84615C5.33636 12.093 4.92308 11.6869 4.92308 11.186ZM9.23077 11.186C9.23077 10.6852 9.64406 10.2791 10.1538 10.2791H18.1538C18.6636 10.2791 19.0769 10.6852 19.0769 11.186C19.0769 11.6869 18.6636 12.093 18.1538 12.093H10.1538C9.64406 12.093 9.23077 11.6869 9.23077 11.186ZM4.92308 15.4186C4.92308 14.9177 5.33636 14.5116 5.84615 14.5116H6.46154C6.97134 14.5116 7.38462 14.9177 7.38462 15.4186C7.38462 15.9195 6.97134 16.3256 6.46154 16.3256H5.84615C5.33636 16.3256 4.92308 15.9195 4.92308 15.4186ZM9.23077 15.4186C9.23077 14.9177 9.64406 14.5116 10.1538 14.5116H18.1538C18.6636 14.5116 19.0769 14.9177 19.0769 15.4186C19.0769 15.9195 18.6636 16.3256 18.1538 16.3256H10.1538C9.64406 16.3256 9.23077 15.9195 9.23077 15.4186ZM4.92308 19.6512C4.92308 19.1503 5.33636 18.7442 5.84615 18.7442H6.46154C6.97134 18.7442 7.38462 19.1503 7.38462 19.6512C7.38462 20.1521 6.97134 20.5581 6.46154 20.5581H5.84615C5.33636 20.5581 4.92308 20.1521 4.92308 19.6512ZM9.23077 19.6512C9.23077 19.1503 9.64406 18.7442 10.1538 18.7442H18.1538C18.6636 18.7442 19.0769 19.1503 19.0769 19.6512C19.0769 20.1521 18.6636 20.5581 18.1538 20.5581H10.1538C9.64406 20.5581 9.23077 20.1521 9.23077 19.6512Z" fill="white"/>
</svg>
