<svg width="24" height="25" viewBox="0 0 24 25" fill="none" xmlns="http://www.w3.org/2000/svg">
<path fill-rule="evenodd" clip-rule="evenodd" d="M6.16935 2.49422C6.31654 1.23282 7.49327 0.25 8.92308 0.25H15.0769C16.5067 0.25 17.6834 1.23282 17.8306 2.49422C18.7698 2.51157 19.5819 2.55563 20.2752 2.67115C21.2081 2.82657 22.0021 3.12265 22.6482 3.70862C23.389 4.38053 23.7077 5.22653 23.8566 6.2313C24 7.19908 24 8.42958 24 9.95619V16.7764C24 18.303 24 19.5335 23.8566 20.5013C23.7077 21.5061 23.389 22.352 22.6482 23.024C21.9073 23.6959 20.9746 23.9849 19.8668 24.12C18.7998 24.25 17.4431 24.25 15.7599 24.25H8.24016C6.55697 24.25 5.20027 24.25 4.13323 24.12C3.0254 23.9849 2.09264 23.6959 1.35182 23.024C0.610991 22.352 0.292358 21.5061 0.14341 20.5013C-4.86821e-05 19.5335 -2.39705e-05 18.303 6.44871e-07 16.7764V9.95619C-2.39705e-05 8.42958 -4.86821e-05 7.19908 0.14341 6.2313C0.292358 5.22653 0.610991 4.38053 1.35182 3.70862C1.99788 3.12265 2.79182 2.82657 3.72474 2.67115C4.41813 2.55563 5.23018 2.51157 6.16935 2.49422ZM6.17226 4.16911C5.28834 4.18622 4.60721 4.22657 4.05828 4.31801C3.36067 4.43424 2.95687 4.62086 2.65724 4.89262C2.31662 5.20156 2.09452 5.63532 1.97311 6.45441C1.84811 7.29759 1.84615 8.41511 1.84615 10.0174V16.7151C1.84615 18.3174 1.84811 19.4349 1.97311 20.2782C2.09452 21.0973 2.31662 21.531 2.65724 21.84C2.99787 22.1489 3.47612 22.3503 4.37923 22.4605C5.30889 22.5738 6.54102 22.5756 8.30769 22.5756H15.6923C17.459 22.5756 18.6911 22.5738 19.6208 22.4605C20.5239 22.3503 21.0021 22.1489 21.3428 21.84C21.6834 21.531 21.9055 21.0973 22.027 20.2782C22.1519 19.4349 22.1538 18.3174 22.1538 16.7151V10.0174C22.1538 8.41511 22.1519 7.29759 22.027 6.45441C21.9055 5.63531 21.6834 5.20156 21.3428 4.89262C21.0431 4.62086 20.6394 4.43424 19.9418 4.31801C19.3927 4.22657 18.7116 4.18622 17.8277 4.16911C17.6687 5.41906 16.4977 6.38954 15.0769 6.38954H8.92308C7.50226 6.38954 6.33137 5.41906 6.17226 4.16911ZM8.92308 1.92442C8.41328 1.92442 8 2.29925 8 2.76163V3.87791C8 4.34028 8.41328 4.71512 8.92308 4.71512H15.0769C15.5867 4.71512 16 4.34028 16 3.87791V2.76163C16 2.29925 15.5867 1.92442 15.0769 1.92442H8.92308ZM4.92308 10.5756C4.92308 10.1132 5.33636 9.73837 5.84615 9.73837H6.46154C6.97134 9.73837 7.38462 10.1132 7.38462 10.5756C7.38462 11.0379 6.97134 11.4128 6.46154 11.4128H5.84615C5.33636 11.4128 4.92308 11.0379 4.92308 10.5756ZM9.23077 10.5756C9.23077 10.1132 9.64406 9.73837 10.1538 9.73837H18.1538C18.6636 9.73837 19.0769 10.1132 19.0769 10.5756C19.0769 11.0379 18.6636 11.4128 18.1538 11.4128H10.1538C9.64406 11.4128 9.23077 11.0379 9.23077 10.5756ZM4.92308 14.4826C4.92308 14.0202 5.33636 13.6454 5.84615 13.6454H6.46154C6.97134 13.6454 7.38462 14.0202 7.38462 14.4826C7.38462 14.9449 6.97134 15.3198 6.46154 15.3198H5.84615C5.33636 15.3198 4.92308 14.9449 4.92308 14.4826ZM9.23077 14.4826C9.23077 14.0202 9.64406 13.6454 10.1538 13.6454H18.1538C18.6636 13.6454 19.0769 14.0202 19.0769 14.4826C19.0769 14.9449 18.6636 15.3198 18.1538 15.3198H10.1538C9.64406 15.3198 9.23077 14.9449 9.23077 14.4826ZM4.92308 18.3895C4.92308 17.9272 5.33636 17.5523 5.84615 17.5523H6.46154C6.97134 17.5523 7.38462 17.9272 7.38462 18.3895C7.38462 18.8519 6.97134 19.2267 6.46154 19.2267H5.84615C5.33636 19.2267 4.92308 18.8519 4.92308 18.3895ZM9.23077 18.3895C9.23077 17.9272 9.64406 17.5523 10.1538 17.5523H18.1538C18.6636 17.5523 19.0769 17.9272 19.0769 18.3895C19.0769 18.8519 18.6636 19.2267 18.1538 19.2267H10.1538C9.64406 19.2267 9.23077 18.8519 9.23077 18.3895Z" fill="black" fill-opacity="0.5"/>
</svg>
