<svg width="46" height="48" viewBox="0 0 46 48" fill="none" xmlns="http://www.w3.org/2000/svg">
<path fill-rule="evenodd" clip-rule="evenodd" d="M5.85615 2.05874C8.72762 -1.08174 13.4555 -0.522726 15.8599 3.00995L18.8343 7.3802C20.7907 10.2547 20.6181 14.2721 18.2958 16.8119L17.7325 17.4279C17.708 17.5065 17.6483 17.7535 17.7146 18.223C17.8637 19.2803 18.6664 21.523 22.0359 25.2083C25.4043 28.8923 27.4577 29.7744 28.4326 29.9389C28.8744 30.0134 29.1055 29.9438 29.177 29.9163L30.1394 28.8637C32.2038 26.606 35.3762 26.1838 37.9322 27.7123L42.4387 30.407C46.2974 32.7143 47.2726 38.4838 44.1108 41.9415L40.7601 45.6063C39.7043 46.7609 38.2846 47.7237 36.5518 47.9015C32.2847 48.3392 22.3348 47.7808 11.8803 36.3467C2.1198 25.6717 0.246772 16.3625 0.00978262 11.7757C-0.110045 9.45646 0.886339 7.4942 2.15377 6.10802L5.85615 2.05874ZM13.0275 5.34229C11.8324 3.58646 9.60505 3.44685 8.35092 4.8185L4.64854 8.86778C3.87032 9.71892 3.49588 10.6569 3.54228 11.5549C3.73059 15.1992 5.24329 23.5994 14.3751 33.5868C23.9553 44.0646 32.8037 44.3773 36.2235 44.0265C36.9221 43.9549 37.617 43.5556 38.2655 42.8465L41.6162 39.1817C42.9784 37.6922 42.6779 34.9796 40.7488 33.8261L36.2423 31.1316C34.9978 30.3875 33.5398 30.633 32.6341 31.6236L31.5599 32.7986L30.3125 31.4186C31.5599 32.7986 31.5582 32.8004 31.5566 32.8023L31.553 32.8059L31.5457 32.8137L31.5304 32.83L31.4959 32.8653C31.4712 32.8902 31.4426 32.9174 31.4108 32.9468C31.3466 33.0051 31.2678 33.071 31.1737 33.1406C30.9848 33.2797 30.7355 33.4312 30.422 33.5593C29.7832 33.8211 28.9406 33.9618 27.8962 33.7856C25.8516 33.4408 23.1432 31.9074 19.5413 27.9681C15.9406 24.0301 14.5348 21.0646 14.2182 18.8196C14.0563 17.6717 14.1854 16.7447 14.4263 16.0414C14.5444 15.6967 14.6835 15.4227 14.8112 15.2154C14.8749 15.112 14.9354 15.0256 14.9889 14.9554C15.0157 14.9203 15.0407 14.8892 15.0634 14.862L15.0958 14.8242L15.1106 14.8074L15.1177 14.7996L15.1211 14.7958C15.1228 14.7939 15.1245 14.7921 16.372 16.172L15.1245 14.7921L15.801 14.0522C16.8121 12.9465 16.9537 11.1109 16.0019 9.71256L13.0275 5.34229Z" fill="white"/>
</svg>
