<svg width="24" height="25" viewBox="0 0 24 25" fill="none" xmlns="http://www.w3.org/2000/svg">
<path fill-rule="evenodd" clip-rule="evenodd" d="M12 3.14062C6.89137 3.14062 2.75 7.28199 2.75 12.3906C2.75 17.4992 6.89137 21.6406 12 21.6406C17.1086 21.6406 21.25 17.4992 21.25 12.3906C21.25 7.28199 17.1086 3.14062 12 3.14062ZM1.25 12.3906C1.25 6.45357 6.06294 1.64062 12 1.64062C17.9371 1.64062 22.75 6.45357 22.75 12.3906C22.75 18.3277 17.9371 23.1406 12 23.1406C6.06294 23.1406 1.25 18.3277 1.25 12.3906ZM12 5.64062C12.4142 5.64062 12.75 5.97642 12.75 6.39062V6.70736C14.3804 6.9993 15.75 8.22424 15.75 9.89062C15.75 10.3048 15.4142 10.6406 15 10.6406C14.5858 10.6406 14.25 10.3048 14.25 9.89062C14.25 9.04636 13.3765 8.14062 12 8.14062C10.6235 8.14062 9.75 9.04636 9.75 9.89062C9.75 10.7349 10.6235 11.6406 12 11.6406C13.9372 11.6406 15.75 12.9734 15.75 14.8906C15.75 16.557 14.3804 17.7819 12.75 18.0739V18.3906C12.75 18.8048 12.4142 19.1406 12 19.1406C11.5858 19.1406 11.25 18.8048 11.25 18.3906V18.0739C9.61957 17.7819 8.25 16.557 8.25 14.8906C8.25 14.4764 8.58579 14.1406 9 14.1406C9.41421 14.1406 9.75 14.4764 9.75 14.8906C9.75 15.7349 10.6235 16.6406 12 16.6406C13.3765 16.6406 14.25 15.7349 14.25 14.8906C14.25 14.0463 13.3765 13.1406 12 13.1406C10.0628 13.1406 8.25 11.8078 8.25 9.89062C8.25 8.22424 9.61957 6.9993 11.25 6.70736V6.39062C11.25 5.97642 11.5858 5.64062 12 5.64062Z" fill="#7F7F7F"/>
</svg>
