<svg width="22" height="22" viewBox="0 0 22 22" fill="none" xmlns="http://www.w3.org/2000/svg">
<path fill-rule="evenodd" clip-rule="evenodd" d="M11 1.53488C5.77256 1.53488 1.53488 5.77256 1.53488 11C1.53488 16.2274 5.77256 20.4651 11 20.4651C16.2274 20.4651 20.4651 16.2274 20.4651 11C20.4651 5.77256 16.2274 1.53488 11 1.53488ZM0 11C0 4.92487 4.92487 0 11 0C17.0752 0 22 4.92487 22 11C22 17.0752 17.0752 22 11 22C4.92487 22 0 17.0752 0 11ZM11 4.09302C11.4238 4.09302 11.7674 4.43662 11.7674 4.86047V5.18456C13.4358 5.48329 14.8372 6.73672 14.8372 8.44186C14.8372 8.8657 14.4936 9.2093 14.0698 9.2093C13.6459 9.2093 13.3023 8.8657 13.3023 8.44186C13.3023 7.57796 12.4085 6.65116 11 6.65116C9.59149 6.65116 8.69767 7.57796 8.69767 8.44186C8.69767 9.3058 9.59149 10.2326 11 10.2326C12.9823 10.2326 14.8372 11.5964 14.8372 13.5581C14.8372 15.2633 13.4358 16.5167 11.7674 16.8155V17.1395C11.7674 17.5634 11.4238 17.907 11 17.907C10.5762 17.907 10.2326 17.5634 10.2326 17.1395V16.8155C8.56421 16.5167 7.16279 15.2633 7.16279 13.5581C7.16279 13.1343 7.50639 12.7907 7.93023 12.7907C8.35408 12.7907 8.69767 13.1343 8.69767 13.5581C8.69767 14.4221 9.59149 15.3488 11 15.3488C12.4085 15.3488 13.3023 14.4221 13.3023 13.5581C13.3023 12.6942 12.4085 11.7674 11 11.7674C9.01775 11.7674 7.16279 10.4036 7.16279 8.44186C7.16279 6.73672 8.56421 5.48329 10.2326 5.18456V4.86047C10.2326 4.43662 10.5762 4.09302 11 4.09302Z" fill="white"/>
</svg>
