<svg width="36" height="36" viewBox="0 0 36 36" fill="none" xmlns="http://www.w3.org/2000/svg">
<path d="M0 18C0 8.05888 8.05888 0 18 0C27.9411 0 36 8.05888 36 18C36 27.9411 27.9411 36 18 36C8.05888 36 0 27.9411 0 18Z" fill="white"/>
<path fill-rule="evenodd" clip-rule="evenodd" d="M18 7.25C15.3767 7.25 13.25 9.37665 13.25 12C13.25 14.6233 15.3767 16.75 18 16.75C20.6234 16.75 22.75 14.6233 22.75 12C22.75 9.37665 20.6234 7.25 18 7.25ZM14.75 12C14.75 10.2051 16.2051 8.75 18 8.75C19.795 8.75 21.25 10.2051 21.25 12C21.25 13.7949 19.795 15.25 18 15.25C16.2051 15.25 14.75 13.7949 14.75 12Z" fill="#7F7F7F"/>
<path fill-rule="evenodd" clip-rule="evenodd" d="M18.0001 18.25C15.6866 18.25 13.5551 18.7759 11.9756 19.6643C10.4196 20.5396 9.25013 21.8661 9.25013 23.5L9.25007 23.602C9.24894 24.7638 9.24752 26.222 10.5265 27.2635C11.156 27.7761 12.0366 28.1406 13.2263 28.3815C14.4194 28.6229 15.9744 28.75 18.0001 28.75C20.0259 28.75 21.5809 28.6229 22.7739 28.3815C23.9637 28.1406 24.8443 27.7761 25.4737 27.2635C26.7527 26.222 26.7513 24.7638 26.7502 23.602L26.7501 23.5C26.7501 21.8661 25.5807 20.5396 24.0247 19.6643C22.4452 18.7759 20.3137 18.25 18.0001 18.25ZM10.7501 23.5C10.7501 22.6487 11.3715 21.7251 12.711 20.9717C14.0269 20.2315 15.8954 19.75 18.0001 19.75C20.1049 19.75 21.9733 20.2315 23.2893 20.9717C24.6288 21.7251 25.2501 22.6487 25.2501 23.5C25.2501 24.8078 25.2098 25.544 24.5265 26.1004C24.156 26.4022 23.5366 26.6967 22.4763 26.9113C21.4194 27.1252 19.9744 27.25 18.0001 27.25C16.0259 27.25 14.5809 27.1252 13.5239 26.9113C12.4637 26.6967 11.8442 26.4022 11.4737 26.1004C10.7904 25.544 10.7501 24.8078 10.7501 23.5Z" fill="#7F7F7F"/>
</svg>
